<svg xmlns="http://www.w3.org/2000/svg" xmlns:xlink="http://www.w3.org/1999/xlink" width="500" zoomAndPan="magnify" viewBox="0 0 375 374.999991" height="500" preserveAspectRatio="xMidYMid meet" version="1.0"><defs><g/><clipPath id="9f31070c37"><rect x="0" width="277" y="0" height="126"/></clipPath><clipPath id="af8614e892"><path d="M 110.273438 136.707031 L 147.109375 136.707031 L 147.109375 164.8125 L 110.273438 164.8125 Z M 110.273438 136.707031 " clip-rule="nonzero"/></clipPath><clipPath id="168342f212"><path d="M 0.273438 0.707031 L 37.109375 0.707031 L 37.109375 28.8125 L 0.273438 28.8125 Z M 0.273438 0.707031 " clip-rule="nonzero"/></clipPath><clipPath id="6826ef50aa"><rect x="0" width="38" y="0" height="29"/></clipPath><clipPath id="7dd5e556e4"><path d="M 116.433594 140.699219 L 141.183594 140.699219 L 141.183594 160.949219 L 116.433594 160.949219 Z M 116.433594 140.699219 " clip-rule="nonzero"/></clipPath><clipPath id="ef7f18a397"><path d="M 1 0.699219 L 24.949219 0.699219 L 24.949219 20 L 1 20 Z M 1 0.699219 " clip-rule="nonzero"/></clipPath><clipPath id="3282d737ee"><path d="M 0.433594 5 L 22 5 L 22 20.949219 L 0.433594 20.949219 Z M 0.433594 5 " clip-rule="nonzero"/></clipPath><clipPath id="0bab412b2f"><rect x="0" width="26" y="0" height="21"/></clipPath></defs><rect x="-37.5" width="450" fill="#ffffff" y="-37.499999" height="449.999989" fill-opacity="1"/><rect x="-37.5" width="450" fill="#000000" y="-37.499999" height="449.999989" fill-opacity="1"/><g transform="matrix(1, 0, 0, 1, 49, 117)"><g clip-path="url(#9f31070c37)"><g fill="#c9c6c1" fill-opacity="1"><g transform="translate(1.185627, 97.379061)"><g><path d="M 29.421875 -15.390625 C 34.429688 -15.515625 39.410156 -15.703125 44.359375 -15.953125 C 50.460938 -16.191406 54.953125 -16.34375 57.828125 -16.40625 C 57.335938 -13.164062 57.09375 -7.695312 57.09375 0 L 4.21875 0 L 4.21875 -15.390625 C 6.84375 -16.859375 9.679688 -18.660156 12.734375 -20.796875 C 15.785156 -22.941406 19.726562 -25.753906 24.5625 -29.234375 C 27.125 -31.191406 29.257812 -32.75 30.96875 -33.90625 C 26.820312 -33.84375 21.203125 -33.628906 14.109375 -33.265625 C 9.285156 -33.023438 5.988281 -32.875 4.21875 -32.8125 C 4.21875 -40.875 4.035156 -46.613281 3.671875 -50.03125 L 57.09375 -50.03125 L 57.09375 -34.640625 C 53.300781 -32.140625 48.867188 -29.054688 43.796875 -25.390625 C 36.410156 -20.128906 31.617188 -16.796875 29.421875 -15.390625 Z M 29.421875 -15.390625 "/></g></g></g><g fill="#c9c6c1" fill-opacity="1"><g transform="translate(62.664592, 97.379061)"><g><path d="M 15.953125 -55.4375 C 12.097656 -55.4375 9.238281 -56.382812 7.375 -58.28125 C 5.507812 -60.175781 4.578125 -62.648438 4.578125 -65.703125 C 4.578125 -68.703125 5.507812 -71.175781 7.375 -73.125 C 9.238281 -75.082031 12.097656 -76.0625 15.953125 -76.0625 C 19.609375 -76.0625 22.414062 -75.066406 24.375 -73.078125 C 26.332031 -71.097656 27.3125 -68.640625 27.3125 -65.703125 C 27.3125 -62.648438 26.363281 -60.175781 24.46875 -58.28125 C 22.570312 -56.382812 19.734375 -55.4375 15.953125 -55.4375 Z M 5.3125 0 C 5.738281 -9.832031 5.953125 -17.957031 5.953125 -24.375 C 5.953125 -32.007812 5.707031 -40.5625 5.21875 -50.03125 L 27.21875 -50.03125 C 26.726562 -40.925781 26.484375 -32.375 26.484375 -24.375 C 26.484375 -17.65625 26.695312 -9.53125 27.125 0 Z M 5.3125 0 "/></g></g></g><g fill="#c9c6c1" fill-opacity="1"><g transform="translate(94.549365, 97.379061)"><g><path d="M 39.40625 0 C 39.769531 -8.976562 39.953125 -17.253906 39.953125 -24.828125 C 39.953125 -27.515625 39.296875 -29.648438 37.984375 -31.234375 C 36.671875 -32.828125 35.003906 -33.625 32.984375 -33.625 C 30.972656 -33.625 29.265625 -32.722656 27.859375 -30.921875 C 26.453125 -29.117188 25.628906 -26.660156 25.390625 -23.546875 C 25.265625 -18.910156 25.203125 -15.613281 25.203125 -13.65625 C 25.203125 -9.5 25.320312 -4.945312 25.5625 0 L 3.671875 0 C 4.160156 -8.800781 4.40625 -17.109375 4.40625 -24.921875 C 4.40625 -32.742188 4.160156 -41.113281 3.671875 -50.03125 C 7.703125 -49.851562 10.785156 -49.765625 12.921875 -49.765625 C 15.179688 -49.765625 18.265625 -49.851562 22.171875 -50.03125 L 24.828125 -36.5625 C 26.234375 -41.445312 28.429688 -45.066406 31.421875 -47.421875 C 34.421875 -49.773438 37.90625 -50.953125 41.875 -50.953125 C 45.539062 -50.953125 48.71875 -50.140625 51.40625 -48.515625 C 54.09375 -46.898438 56.125 -44.71875 57.5 -41.96875 C 58.875 -39.21875 59.5625 -36.132812 59.5625 -32.71875 L 59.5625 -19.515625 C 59.5625 -11.390625 59.71875 -4.882812 60.03125 0 Z M 39.40625 0 "/></g></g></g><g fill="#c9c6c1" fill-opacity="1"><g transform="translate(158.227275, 97.379061)"><g><path d="M 25.203125 -36.65625 C 25.140625 -32.988281 25.109375 -27.367188 25.109375 -19.796875 C 25.109375 -10.691406 25.171875 -4.09375 25.296875 0 L 3.671875 0 L 3.75 -10.359375 C 3.875 -21.722656 3.9375 -30.488281 3.9375 -36.65625 C 3.9375 -42.519531 3.875 -50.828125 3.75 -61.578125 L 3.671875 -71.484375 L 25.296875 -71.484375 C 25.171875 -62.804688 25.109375 -55.71875 25.109375 -50.21875 C 25.109375 -44.113281 25.140625 -39.59375 25.203125 -36.65625 Z M 25.203125 -36.65625 "/></g></g></g><g fill="#c9c6c1" fill-opacity="1"><g transform="translate(187.180116, 97.379061)"><g><path d="M 60.03125 -50.03125 C 59.601562 -42.332031 59.390625 -34.023438 59.390625 -25.109375 C 59.390625 -16.128906 59.601562 -7.757812 60.03125 0 C 56.113281 -0.1875 53.023438 -0.28125 50.765625 -0.28125 C 48.628906 -0.28125 45.546875 -0.1875 41.515625 0 L 38.859375 -13.46875 C 37.453125 -8.582031 35.25 -4.960938 32.25 -2.609375 C 29.257812 -0.253906 25.78125 0.921875 21.8125 0.921875 C 18.144531 0.921875 14.96875 0.113281 12.28125 -1.5 C 9.59375 -3.125 7.5625 -5.3125 6.1875 -8.0625 C 4.8125 -10.8125 4.125 -13.894531 4.125 -17.3125 L 4.125 -30.515625 C 4.125 -38.640625 3.972656 -45.144531 3.671875 -50.03125 L 24.28125 -50.03125 C 23.914062 -41.050781 23.734375 -32.164062 23.734375 -23.375 C 23.734375 -20.6875 24.390625 -18.546875 25.703125 -16.953125 C 27.015625 -15.367188 28.679688 -14.578125 30.703125 -14.578125 C 32.597656 -14.578125 34.257812 -15.414062 35.6875 -17.09375 C 37.125 -18.769531 38 -21.078125 38.3125 -24.015625 L 38.3125 -26.125 C 38.425781 -30.882812 38.484375 -34.179688 38.484375 -36.015625 C 38.484375 -40.234375 38.363281 -44.90625 38.125 -50.03125 Z M 60.03125 -50.03125 "/></g></g></g><g fill="#e05a47" fill-opacity="1"><g transform="translate(250.859406, 97.379061)"><g><path d="M 12.46875 0.921875 C 9.78125 0.921875 7.488281 -0.0390625 5.59375 -1.96875 C 3.695312 -3.894531 2.75 -6.203125 2.75 -8.890625 C 2.75 -11.578125 3.695312 -13.867188 5.59375 -15.765625 C 7.488281 -17.660156 9.78125 -18.609375 12.46875 -18.609375 C 15.09375 -18.609375 17.363281 -17.644531 19.28125 -15.71875 C 21.207031 -13.789062 22.171875 -11.515625 22.171875 -8.890625 C 22.171875 -6.203125 21.207031 -3.894531 19.28125 -1.96875 C 17.363281 -0.0390625 15.09375 0.921875 12.46875 0.921875 Z M 12.46875 0.921875 "/></g></g></g></g></g><g clip-path="url(#af8614e892)"><g transform="matrix(1, 0, 0, 1, 110, 136)"><g clip-path="url(#6826ef50aa)"><g clip-path="url(#168342f212)"><path fill="#000000" d="M 0.273438 0.707031 L 37.164062 0.707031 L 37.164062 28.8125 L 0.273438 28.8125 Z M 0.273438 0.707031 " fill-opacity="1" fill-rule="nonzero"/></g></g></g></g><g clip-path="url(#7dd5e556e4)"><g transform="matrix(1, 0, 0, 1, 116, 140)"><g clip-path="url(#0bab412b2f)"><g clip-path="url(#ef7f18a397)"><path fill="#ee826c" d="M 24.328125 8.824219 C 23.359375 6.53125 21.523438 4.425781 19.542969 2.988281 C 17.527344 1.550781 15.425781 0.691406 13.222656 0.699219 C 11.019531 0.691406 8.917969 1.550781 6.90625 2.988281 C 4.925781 4.425781 3.085938 6.53125 2.117188 8.824219 C 1.179688 11.09375 1.277344 13.074219 3.230469 15.089844 C 5.121094 17.027344 8.902344 19.574219 13.222656 19.535156 C 17.542969 19.578125 21.328125 17.027344 23.21875 15.089844 C 25.167969 13.074219 25.265625 11.09375 24.328125 8.824219 Z M 24.328125 8.824219 " fill-opacity="1" fill-rule="nonzero"/></g><g clip-path="url(#3282d737ee)"><path fill="#e05a47" d="M 1.847656 9.316406 C 3.601562 7.300781 6.996094 5.503906 10.988281 5.550781 C 14.980469 5.503906 18.375 7.300781 20.128906 9.316406 C 21.949219 11.355469 22.125 13.613281 21.148438 15.089844 C 20.148438 16.617188 18.316406 17.375 16.515625 17.921875 C 14.675781 18.4375 12.875 18.742188 10.988281 18.742188 C 9.101562 18.742188 7.300781 18.4375 5.460938 17.921875 C 5.363281 17.890625 5.265625 17.859375 5.167969 17.828125 C 4.429688 18.574219 4.144531 19.234375 4.042969 19.703125 C 3.898438 20.367188 4.082031 20.796875 4.082031 20.800781 C 4.105469 20.851562 4.082031 20.910156 4.035156 20.9375 C 4.019531 20.945312 4.003906 20.949219 3.988281 20.949219 C 3.949219 20.949219 3.914062 20.929688 3.898438 20.894531 C 3.3125 19.878906 2.664062 18.371094 2.878906 16.960938 C 2.882812 16.9375 2.886719 16.917969 2.890625 16.898438 C 2.0625 16.445312 1.335938 15.867188 0.828125 15.089844 C -0.148438 13.613281 0.0273438 11.355469 1.847656 9.316406 Z M 1.847656 9.316406 " fill-opacity="1" fill-rule="nonzero"/></g></g></g></g></svg>